<svg width="168" height="54" viewBox="0 0 168 54" fill="none" xmlns="http://www.w3.org/2000/svg">
<path d="M153.057 34.7508V14.1719H156.878V31.517H167.638V34.7508H153.057Z" fill="#0CA4D5"/>
<path d="M143.669 34.7508V14.1719H147.49V34.7508H143.669Z" fill="#0CA4D5"/>
<path d="M128.534 35.0449C122.155 35.0449 117.451 30.5469 117.451 24.4614C117.451 18.3759 122.155 13.8779 128.534 13.8779C134.914 13.8779 139.618 18.3465 139.618 24.4614C139.618 30.5763 134.914 35.0449 128.534 35.0449ZM128.534 31.6934C132.679 31.6934 135.766 28.6654 135.766 24.4614C135.766 20.2574 132.679 17.2294 128.534 17.2294C124.389 17.2294 121.302 20.2574 121.302 24.4614C121.302 28.6654 124.389 31.6934 128.534 31.6934Z" fill="#0CA4D5"/>
<path d="M109.614 14.1719H113.407V34.7508H110.261L98.9133 20.8159V34.7508H95.1209V14.1719H98.2665L109.614 28.1068V14.1719Z" fill="#0CA4D5"/>
<path d="M79.248 31.5464H90.8604V34.7508H75.4261V14.1719H90.4488V17.3763H79.248V22.7268H89.1847V25.8725H79.248V31.5464Z" fill="#0CA4D5"/>
<path d="M61.9157 34.7508V17.4057H55.0952V14.1719H72.558V17.4057H65.7375V34.7508H61.9157Z" fill="#0CA4D5"/>
<path d="M23.5812 33.4658L0 53.5391L40.5595 35.6282L30.2684 26.2581L55.0952 0.0698128L13.8908 25.4572L23.5812 33.4658Z" fill="#0CA4D5"/>
<rect x="55.0952" y="45.1621" width="112.543" height="2.14538" fill="#0CA4D5"/>
</svg>
